<svg xmlns="http://www.w3.org/2000/svg" xmlns:xlink="http://www.w3.org/1999/xlink" viewBox="0 0 35.26 44.16"><defs><style>.cls-1{isolation:isolate;}.cls-2{fill:#fff;}.cls-3{fill:#333e48;}.cls-4,.cls-5{opacity:0.71;}.cls-4,.cls-5,.cls-7,.cls-8{mix-blend-mode:multiply;}.cls-4{fill:url(#linear-gradient);}.cls-5{fill:url(#linear-gradient-2);}.cls-6{fill:none;stroke:#0db14b;}.cls-6,.cls-9{stroke-linecap:round;stroke-miterlimit:10;stroke-width:1.89px;}.cls-7,.cls-8{opacity:0.5;}.cls-7{fill:url(#linear-gradient-3);}.cls-8{fill:url(#linear-gradient-4);}.cls-9{fill:#606163;stroke:#333e48;}</style><linearGradient id="linear-gradient" x1="14.79" y1="429.87" x2="15.8" y2="428.58" gradientUnits="userSpaceOnUse"><stop offset="0" stop-color="#fff" stop-opacity="0"/><stop offset="0.49" stop-color="#858384" stop-opacity="0.55"/><stop offset="1" stop-color="#231f20"/></linearGradient><linearGradient id="linear-gradient-2" x1="18.15" y1="425.96" x2="16.73" y2="427.65" gradientUnits="userSpaceOnUse"><stop offset="0" stop-color="#fff" stop-opacity="0"/><stop offset="0.34" stop-color="#e6e5e6" stop-opacity="0.11"/><stop offset="0.68" stop-color="#9a9999" stop-opacity="0.46"/><stop offset="1" stop-color="#231f20"/></linearGradient><linearGradient id="linear-gradient-3" x1="223.28" y1="405.64" x2="223.28" y2="403.52" gradientTransform="translate(-203.84 20.96) scale(1.01 1)" gradientUnits="userSpaceOnUse"><stop offset="0" stop-color="#231f20" stop-opacity="0"/><stop offset="0.33" stop-color="#231f20" stop-opacity="0.14"/><stop offset="0.7" stop-color="#231f20" stop-opacity="0.54"/><stop offset="1" stop-color="#231f20"/></linearGradient><linearGradient id="linear-gradient-4" x1="-28.08" y1="-94.17" x2="-28.08" y2="-96.29" gradientTransform="translate(53.13 517.93) scale(1.01 1)" xlink:href="#linear-gradient-3"/></defs><title>passlight</title><g class="cls-1"><g id="Layer_1" data-name="Layer 1"><path class="cls-2" d="M32.9,414.67c8.68,14.07-5.41,24.45-5.41,24.45v11.7S8.26,441.5,3.34,433.94A17.65,17.65,0,0,1,32.9,414.67Z" transform="translate(-0.47 -406.66)"/><path class="cls-3" d="M18.65,418.44v7.2c0,3.43-3.22,5-6,5s-6-1.53-6-5v-7.2a0.9,0.9,0,0,1,.95-0.84,0.92,0.92,0,0,1,1,.84v7.26c0,2.28,2.06,3.39,4.12,3.39s4.12-1.11,4.12-3.39v-7.26a0.9,0.9,0,0,1,.94-0.84A0.92,0.92,0,0,1,18.65,418.44Z" transform="translate(-0.47 -406.66)"/><path class="cls-4" d="M15.45,428.32l1.38,1.07c-0.1.08-.3,0.19-0.46,0.29l-0.25.14a6.87,6.87,0,0,1-.9.39L13.81,429a4.43,4.43,0,0,0,.66-0.17A4.79,4.79,0,0,0,15.45,428.32Z" transform="translate(-0.47 -406.66)"/><path class="cls-5" d="M16.44,427.19l1.29,1.3a4.16,4.16,0,0,0,.88-2.13l-1.83-.79A3.93,3.93,0,0,1,16.44,427.19Z" transform="translate(-0.47 -406.66)"/><line class="cls-6" x1="12.28" y1="18.04" x2="17.28" y2="23.03"/><line class="cls-6" x1="28.42" y1="11.89" x2="17.28" y2="23.03"/><rect class="cls-7" x="20.96" y="424.48" width="1.89" height="2.11" transform="translate(306.84 -297.51) rotate(45)"/><rect class="cls-8" x="23.79" y="421.65" width="1.89" height="2.11" transform="translate(-257.13 332.43) rotate(-135)"/><line class="cls-9" x1="17.26" y1="11.87" x2="28.41" y2="23.02"/></g></g></svg>