<svg xmlns="http://www.w3.org/2000/svg" xmlns:xlink="http://www.w3.org/1999/xlink" viewBox="0 0 197.09 111.89"><defs><style>.cls-1{isolation:isolate;}.cls-2{fill:#fff;}.cls-3,.cls-4{opacity:0.71;}.cls-3,.cls-4,.cls-6,.cls-7{mix-blend-mode:multiply;}.cls-3{fill:url(#linear-gradient);}.cls-4{fill:url(#linear-gradient-2);}.cls-5,.cls-8,.cls-9{fill:none;stroke-linecap:round;stroke-miterlimit:10;stroke-width:16.22px;}.cls-5{stroke:#009ede;}.cls-6,.cls-7{opacity:0.5;}.cls-6{fill:url(#linear-gradient-3);}.cls-7{fill:url(#linear-gradient-4);}.cls-8{stroke:#fff;}.cls-9{opacity:0.74;mix-blend-mode:lighten;stroke:url(#linear-gradient-5);}</style><linearGradient id="linear-gradient" x1="263.97" y1="528.62" x2="272.64" y2="517.53" gradientUnits="userSpaceOnUse"><stop offset="0" stop-color="#fff" stop-opacity="0"/><stop offset="0.49" stop-color="#858384" stop-opacity="0.55"/><stop offset="1" stop-color="#231f20"/></linearGradient><linearGradient id="linear-gradient-2" x1="293.39" y1="494.84" x2="281.26" y2="509.3" gradientUnits="userSpaceOnUse"><stop offset="0" stop-color="#fff" stop-opacity="0"/><stop offset="0.34" stop-color="#e6e5e6" stop-opacity="0.11"/><stop offset="0.68" stop-color="#9a9999" stop-opacity="0.46"/><stop offset="1" stop-color="#231f20"/></linearGradient><linearGradient id="linear-gradient-3" x1="384.44" y1="456.34" x2="384.44" y2="438.22" gradientTransform="translate(-63.09 43.91) scale(1.01 1)" gradientUnits="userSpaceOnUse"><stop offset="0" stop-color="#231f20" stop-opacity="0"/><stop offset="0.33" stop-color="#231f20" stop-opacity="0.14"/><stop offset="0.7" stop-color="#231f20" stop-opacity="0.54"/><stop offset="1" stop-color="#231f20"/></linearGradient><linearGradient id="linear-gradient-4" x1="219.71" y1="355.07" x2="219.71" y2="336.95" gradientTransform="translate(127.75 120.89) scale(1.01 1)" xlink:href="#linear-gradient-3"/><linearGradient id="linear-gradient-5" x1="42.51" y1="82.37" x2="101.55" y2="82.37" gradientUnits="userSpaceOnUse"><stop offset="0" stop-color="#fff"/><stop offset="0.1" stop-color="#e0dfe0" stop-opacity="0.86"/><stop offset="0.29" stop-color="#a7a6a6" stop-opacity="0.6"/><stop offset="0.47" stop-color="#787676" stop-opacity="0.39"/><stop offset="0.64" stop-color="#535051" stop-opacity="0.22"/><stop offset="0.78" stop-color="#393536" stop-opacity="0.1"/><stop offset="0.91" stop-color="#292526" stop-opacity="0.03"/><stop offset="1" stop-color="#231f20" stop-opacity="0"/></linearGradient></defs><title>uxpasslightblue</title><g class="cls-1"><g id="Layer_2" data-name="Layer 2"><path class="cls-2" d="M297.76,430.47v61.78c0,29.4-27,42.54-50.62,42.54s-50.62-13.14-50.62-42.54V430.47c0-3.91,3.53-7.19,7.94-7.19s8.11,3.28,8.11,7.19v62.24c0,19.55,17.28,29.09,34.57,29.09s34.57-9.54,34.57-29.09V430.47c0-3.91,3.53-7.19,7.94-7.19S297.76,426.56,297.76,430.47Z" transform="translate(-196.53 -423.03)"/><path class="cls-3" d="M269.68,515.32l11.84,9.14c-0.88.65-2.56,1.61-4,2.47,0,0-1.07.65-2.17,1.24a58.92,58.92,0,0,1-7.69,3.34L255.6,521a38,38,0,0,0,5.66-1.41A41.09,41.09,0,0,0,269.68,515.32Z" transform="translate(-196.53 -423.03)"/><path class="cls-4" d="M278.72,505.34l11.07,11.13a35.67,35.67,0,0,0,7.58-18.29l-15.66-6.75S281.6,500.92,278.72,505.34Z" transform="translate(-196.53 -423.03)"/><line class="cls-5" x1="50.62" y1="60.95" x2="93.45" y2="103.78"/><line class="cls-5" x1="188.98" y1="8.25" x2="93.45" y2="103.78"/><rect class="cls-6" x="317.48" y="482.13" width="16.23" height="18.12" transform="translate(246.16 -509.39) rotate(45)"/><rect class="cls-7" x="341.77" y="457.85" width="16.23" height="18.12" transform="translate(70.61 621.43) rotate(-135)"/><line class="cls-8" x1="93.31" y1="8.11" x2="188.85" y2="103.65"/><line class="cls-9" x1="50.62" y1="60.95" x2="93.45" y2="103.78"/></g></g></svg>